<?xml version="1.0" standalone="no"?>
<!DOCTYPE svg PUBLIC "-//W3C//DTD SVG 20010904//EN"
 "http://www.w3.org/TR/2001/REC-SVG-20010904/DTD/svg10.dtd">
<svg version="1.0" xmlns="http://www.w3.org/2000/svg"
 width="992.000000pt" height="992.000000pt" viewBox="0 0 992.000000 992.000000"
 preserveAspectRatio="xMidYMid meet">
<metadata>
Created by potrace 1.14, written by Peter Selinger 2001-2017
</metadata>
<g transform="translate(0.000000,992.000000) scale(0.100000,-0.100000)"
fill="#000000" stroke="none">
<path d="M4645 9913 c-234 -18 -384 -37 -616 -78 -80 -14 -269 -58 -384 -90
-1735 -475 -3090 -1874 -3509 -3625 -64 -267 -98 -485 -125 -795 -11 -123 -11
-621 0 -730 4 -44 11 -111 14 -150 53 -609 280 -1329 600 -1900 622 -1112
1661 -1955 2867 -2325 367 -113 695 -175 1108 -209 128 -11 601 -11 725 0 107
9 337 35 395 45 761 125 1407 380 2025 798 443 299 882 720 1197 1146 535 724
856 1545 953 2440 28 256 28 788 1 1035 -93 832 -363 1574 -819 2255 -39 58
-74 109 -79 115 -4 5 -40 53 -79 105 -79 105 -179 228 -249 305 -82 92 -361
369 -432 430 -39 33 -75 65 -82 70 -37 33 -123 102 -206 164 -52 39 -100 75
-105 79 -26 21 -202 137 -296 194 -169 105 -362 208 -529 283 -402 182 -853
319 -1250 380 -58 9 -116 18 -130 21 -133 23 -352 37 -635 38 -176 2 -338 1
-360 -1z"/>
</g>
</svg>
